<?xml version="1.0" encoding="UTF-8" standalone="no"?>
<svg
   width="668.70782"
   height="622.22839"
   viewBox="0 0 176.92895 164.63127"
   version="1.1"
   id="svg5"
   xml:space="preserve"
   sodipodi:docname="path354-3-9-0-97-9.svg"
   inkscape:export-filename="path354-3-9-0-97-9.svg"
   inkscape:export-xdpi="96"
   inkscape:export-ydpi="96"
   xmlns:inkscape="http://www.inkscape.org/namespaces/inkscape"
   xmlns:sodipodi="http://sodipodi.sourceforge.net/DTD/sodipodi-0.dtd"
   xmlns="http://www.w3.org/2000/svg"
   xmlns:svg="http://www.w3.org/2000/svg"><sodipodi:namedview
     id="namedview6087"
     pagecolor="#505050"
     bordercolor="#ffffff"
     borderopacity="1"
     inkscape:showpageshadow="0"
     inkscape:pageopacity="0"
     inkscape:pagecheckerboard="1"
     inkscape:deskcolor="#505050"
     inkscape:document-units="mm"
     showgrid="false" /><defs
     id="defs2"><filter
       style="color-interpolation-filters:sRGB"
       id="filter30746"
       x="-0.1172486"
       y="-0.12821367"
       width="1.2348016"
       height="1.2564273"><feFlood
         flood-opacity="1"
         flood-color="rgb(0,157,201)"
         result="flood"
         id="feFlood30736" /><feComposite
         in="flood"
         in2="SourceGraphic"
         operator="in"
         result="composite1"
         id="feComposite30738" /><feGaussianBlur
         in="composite1"
         stdDeviation="7"
         result="blur"
         id="feGaussianBlur30740" /><feOffset
         dx="0.0436137"
         dy="0"
         result="offset"
         id="feOffset30742" /><feComposite
         in="SourceGraphic"
         in2="offset"
         operator="over"
         result="composite2"
         id="feComposite30744" /></filter></defs><g
     id="layer1"
     transform="translate(-1183.0136,-379.11744)"><path
       id="path354-3-9-0-97-9"
       style="fill:#7900ee;fill-opacity:1;stroke:#000000;stroke-width:0"
       d="m 1270.1762,395.91744 -5e-4,8.75243 c 6.9339,0.53516 13.4971,2.3076 19.482,5.09013 h 10.5952 c 3.6598,1.70154 7.1026,3.78175 10.2826,6.1867 h -10.5952 c 13.7914,10.43015 22.625,26.98654 22.6312,45.43031 -10e-5,0.37629 10e-5,0.75131 -0.011,1.12603 h -1.8531 c -0.021,1.06796 -0.072,2.12923 -0.1519,3.18326 h 1.8526 c -0.1191,1.57823 -0.302,3.14008 -0.5478,4.68241 h 8.0238 c -0.24,1.5058 -0.5391,2.99393 -0.895,4.46019 h -8.0238 c -0.3462,1.42605 -0.746,2.83151 -1.1974,4.21524 -0.43,1.31841 -0.9071,2.61659 -1.4288,3.89227 -1.7989,4.39826 -4.1306,8.53037 -6.919,12.30985 h 9.6092 c -2.8095,3.80817 -6.0811,7.25894 -9.7373,10.26345 h -9.6098 c -8.6899,7.14092 -19.5468,11.76352 -31.5066,12.68657 l 5e-4,8.75243 c 19.21,-6e-5 36.4888,-8.26772 48.4725,-21.439 h 9.6092 c 2.8707,-3.15512 5.4377,-6.59183 7.6544,-10.26345 h -9.6098 c 2.3311,-3.86114 4.2754,-7.98241 5.7785,-12.30985 0.4445,-1.27981 0.8499,-2.57777 1.2159,-3.89227 0.3863,-1.38718 0.7281,-2.79262 1.0237,-4.21524 h 8.0238 c 0.3053,-1.46919 0.5608,-2.95676 0.7659,-4.46019 h -8.0238 c 0.2106,-1.54424 0.3674,-3.10587 0.4687,-4.68241 h -1.8526 c 0.068,-1.05453 0.1105,-2.11573 0.1276,-3.18326 h 1.8531 c 0.01,-0.3561 0.01,-0.71276 0.01,-1.07022 0,-17.66827 -6.9948,-33.70236 -18.3652,-45.48612 h 10.5936 c -2.141,-2.21878 -4.4371,-4.28681 -6.8709,-6.1867 h -10.5952 c -11.1111,-8.67351 -25.0913,-13.84251 -40.2792,-13.84256 z m 0,0 c -18.4988,6e-5 -36.346,7.68515 -49.3753,20.02926 h 9.0791 c -2.8995,2.74707 -5.5625,5.72207 -7.9386,8.89765 h -9.0795 c -3.278,4.38094 -6.0133,9.13892 -8.0869,14.18467 h -6.5479 c -1.02,2.48222 -1.8807,5.03393 -2.5657,7.64552 h 6.5479 c -1.2489,4.76179 -1.9166,9.72139 -1.9167,14.81564 0,4.45939 0.5127,8.81374 1.478,13.02142 h 6.429 c 0.4126,1.79839 0.9084,3.5693 1.4821,5.31079 h -6.429 c 0.4828,1.46581 1.0217,2.9108 1.6128,4.33204 2.5938,6.23692 6.203,12.02584 10.5978,17.20205 2.7814,3.27593 5.8786,6.30474 9.2309,9.04802 h -10.1523 c 2.0989,1.71755 4.2975,3.32327 6.583,4.8054 h 10.1524 c 11.4114,7.40014 24.9708,11.73877 38.8989,11.73881 l -4.3682,-8.92968 c -4.8009,-0.37055 -9.4235,-1.33301 -13.8002,-2.80913 h -10.1523 c -3.7011,-1.2483 -7.2264,-2.86468 -10.5332,-4.8054 h 10.1523 c -9.2053,-5.40245 -16.722,-13.31278 -21.6503,-22.7614 -0.5954,-1.14127 -1.1536,-2.30424 -1.6718,-3.48867 -0.6192,-1.41525 -1.182,-2.86053 -1.6862,-4.33204 h 6.4286 c -0.5944,-1.73502 -1.1064,-3.50639 -1.5328,-5.31079 h -6.429 c -0.9935,-4.20433 -1.5196,-8.58423 -1.5203,-13.07878 0,-5.09684 0.6784,-10.04522 1.9466,-14.75828 h -6.5479 c 0.7069,-2.62701 1.5984,-5.18041 2.6593,-7.64552 h 6.5474 c 2.222,-5.16323 5.1886,-9.93895 8.7715,-14.18467 h 9.079 c 2.7927,-3.30927 5.9597,-6.2976 9.4388,-8.89765 h -9.0796 c 8.3452,-6.23665 18.4882,-10.2409 29.5801,-11.09699 z m -58.7054,21.60281 v 1.3131 h 8.0367 v -1.3131 z m -16.506,49.77216 v 1.02474 h 2.1446 v -1.02474 z m 127.1054,5.63996 v 1.01441 h 4.9739 v -1.01441 z m -130.901,4.06487 v 2.65565 h 7.5912 v -2.65565 z m 104.2479,23.381 v 3.28869 h 10.3828 v -3.28869 z m -80.8752,19.04277 v 2.65255 h 9.8511 v -2.65255 z" /><path
       id="path354-3-6-3-6-73-5"
       style="fill:#006eff;fill-opacity:1;stroke:#000000;stroke-width:0"
       d="m 1270.1757,395.91744 c -18.5137,6e-5 -35.2314,7.68224 -47.1465,20.02926 h 9.0791 c -2.6505,2.74665 -5.0656,5.72221 -7.2074,8.89765 h -9.079 c -2.9546,4.38058 -5.3936,9.13827 -7.23,14.18467 h -6.5474 c -0.9033,2.48196 -1.6617,5.03386 -2.263,7.64552 h 6.548 c -1.0922,4.7434 -1.6691,9.68317 -1.6692,14.75828 0,4.4786 0.4503,8.85273 1.3064,13.07878 h 6.4285 c 0.3643,1.79835 0.8023,3.56917 1.3106,5.31079 h -6.4286 c 0.4279,1.46582 0.9059,2.91069 1.4315,4.33204 2.3056,6.23606 5.5335,12.02519 9.5177,17.20205 2.5211,3.27568 5.3462,6.30457 8.431,9.04802 h -10.1523 c 1.9313,1.71757 3.9639,3.32315 6.0895,4.8054 h 10.1524 c 10.6102,7.39889 23.5125,11.73877 37.4287,11.73881 v -8.75243 c -5.1762,-0.33601 -10.1529,-1.36335 -14.8441,-2.98638 h -10.1523 c -3.636,-1.25794 -7.1002,-2.87407 -10.3523,-4.8054 h 10.1523 c -11.5628,-6.86621 -20.4477,-17.71223 -24.8445,-30.58211 h 6.4286 c -0.5928,-1.73525 -1.1044,-3.50677 -1.5296,-5.31079 h -6.4286 c -0.9913,-4.20588 -1.5157,-8.58594 -1.5157,-13.07878 0,-5.09465 0.6778,-10.04307 1.9446,-14.75828 h -6.5479 c 0.7056,-2.62615 1.5948,-5.17984 2.6531,-7.64552 h 6.5479 c 2.2145,-5.15942 5.1692,-9.93491 8.7359,-14.18467 h 9.0795 c 2.7748,-3.30617 5.9196,-6.29348 9.3736,-8.89765 h -9.0795 c 8.544,-6.44176 18.9769,-10.53666 30.379,-11.27683 z m 5e-4,0 3.6768,8.88989 c 7.0431,0.45721 13.7171,2.18554 19.8045,4.95267 h 10.5952 c 3.7206,1.69129 7.2206,3.77239 10.4531,6.1867 h -10.5952 c 9.3003,6.9464 16.3759,16.66421 20.0391,27.89288 v -18.99523 h 2.8556 v 18.99523 c 0,0.006 -2e-4,0.0124 0.01,0.0186 h 12.5496 c -2.1168,-6.85578 -5.4227,-13.25987 -9.6588,-19.01383 v 0 h -2.8557 c -2.3376,-3.17503 -4.9589,-6.15129 -7.8181,-8.89765 h 10.5952 c -2.3096,-2.21847 -4.774,-4.28703 -7.3721,-6.1867 h -10.5952 c -11.8631,-8.67384 -26.492,-13.84251 -41.6802,-13.84256 z m -19.7662,14.78204 v 2.68717 h 11.4484 v -2.68717 z m 77.5115,8.27856 v 3.05046 h 11.6432 v -3.05046 z m -103.5368,18.64848 v 2.60036 h 3.0365 v -2.60036 z m 99.7712,6.23218 c 1.8057,5.54157 2.7813,11.44968 2.7833,17.57412 0,0.35744 10e-5,0.71429 -0.01,1.07022 h -1.8531 c -0.02,1.06832 -0.069,2.12949 -0.1478,3.18326 h 1.8526 c -0.1173,1.57894 -0.2988,3.14079 -0.5431,4.68241 h 8.0238 c -0.2387,1.50659 -0.5368,2.99439 -0.8919,4.46019 h -8.0238 c -0.3456,1.42652 -0.7451,2.83219 -1.1963,4.21524 -0.4304,1.31908 -0.9084,2.6169 -1.431,3.89227 -1.8048,4.40411 -4.1473,8.5358 -6.9499,12.30985 h 9.6097 c -2.8333,3.81539 -6.1362,7.26539 -9.8268,10.26345 h -9.6097 c -8.8445,7.18489 -19.9156,11.77333 -32.089,12.56358 l -3.6768,8.87542 c 19.21,-6e-5 37.5252,-8.26779 50.4812,-21.439 h 9.6097 c 3.1035,-3.15509 5.899,-6.59185 8.3261,-10.26345 h -9.6097 c 2.5524,-3.86114 4.6971,-7.98244 6.3624,-12.30985 0.4925,-1.27982 0.9425,-2.57776 1.3493,-3.89227 0.4292,-1.38717 0.8098,-2.79262 1.1394,-4.21524 h 8.0238 c 0.3405,-1.46919 0.6263,-2.95676 0.8558,-4.46019 h -8.0238 c 0.2357,-1.54423 0.411,-3.10588 0.5245,-4.68241 h -1.8526 c 0.076,-1.05454 0.1244,-2.11573 0.1437,-3.18326 h 1.8531 c 0.01,-0.3561 0.01,-0.71275 0.01,-1.07022 0,-6.08802 -0.936,-11.98109 -2.6629,-17.57412 h -5e-4 z m 18.2836,1.77405 v 1.44797 h 1.2867 v -1.44797 z m -1.9017,18.01957 v 1.04645 h 3.0892 v -1.04645 z m -97.2023,41.28533 v 2.75849 h 8.4801 v -2.75849 z m 70.7517,12.73308 v 3.40909 h 19.2097 v -3.40909 z" /><path
       id="path354-6-61-9-5-4"
       style="fill:#ffffff;fill-opacity:1;stroke:#000000;stroke-width:0;filter:url(#filter30746)"
       d="m 1270.1757,395.91744 a 65.515602,65.515602 0 0 0 -47.1015,20.02926 h 9.0795 a 65.515602,65.515602 0 0 0 -7.229,8.89765 h -9.0795 a 65.515602,65.515602 0 0 0 -7.1872,14.18467 h -6.5479 a 65.515602,65.515602 0 0 0 -2.2965,7.64552 h 6.5479 a 65.515602,65.515602 0 0 0 -1.7012,14.75828 65.515602,65.515602 0 0 0 1.3188,13.07878 h 6.4285 a 65.515602,65.515602 0 0 0 1.325,5.31079 h -6.429 a 65.515602,65.515602 0 0 0 1.4392,4.33204 65.515602,65.515602 0 0 0 9.4965,17.20205 65.515602,65.515602 0 0 0 8.4398,9.04802 h -10.1523 a 65.515602,65.515602 0 0 0 6.0988,4.8054 h 10.1524 a 65.515602,65.515602 0 0 0 37.3977,11.73881 65.515602,65.515602 0 0 0 48.4715,-21.439 h 9.6097 a 65.515602,65.515602 0 0 0 7.6435,-10.26345 h -9.6093 a 65.515602,65.515602 0 0 0 5.7651,-12.30985 65.515602,65.515602 0 0 0 1.2169,-3.89227 65.515602,65.515602 0 0 0 1.0232,-4.21524 h 8.0238 a 65.515602,65.515602 0 0 0 0.7788,-4.46019 h -8.0238 a 65.515602,65.515602 0 0 0 0.4594,-4.68241 h -1.8526 a 65.515602,65.515602 0 0 0 0.1323,-3.18326 h 1.8521 a 65.515602,65.515602 0 0 0 0.025,-1.07022 65.515602,65.515602 0 0 0 -2.4056,-17.57412 h 2.8562 a 65.515602,65.515602 0 0 0 -8.7638,-19.01435 h -0.3726 v 19.01435 h -2.8556 a 56.763294,56.763294 0 0 1 2.7895,17.57412 56.763294,56.763294 0 0 1 -0.03,1.07022 h -1.8521 a 56.763294,56.763294 0 0 1 -0.1535,3.18326 h 1.8526 a 56.763294,56.763294 0 0 1 -0.5338,4.68241 h 8.0238 a 56.763294,56.763294 0 0 1 -0.8971,4.46019 h -8.0238 a 56.763294,56.763294 0 0 1 -1.1942,4.21524 56.763294,56.763294 0 0 1 -1.4279,3.89227 56.763294,56.763294 0 0 1 -6.9349,12.30985 h 9.6097 a 56.763294,56.763294 0 0 1 -9.8263,10.26345 h -9.6097 a 56.763294,56.763294 0 0 1 -35.7663,12.68657 56.763294,56.763294 0 0 1 -18.1369,-2.98638 h -10.1523 a 56.763294,56.763294 0 0 1 -10.557,-4.8054 h 10.1523 a 56.763294,56.763294 0 0 1 -21.6575,-22.76967 56.763294,56.763294 0 0 1 -1.6589,-3.4804 56.763294,56.763294 0 0 1 -1.6903,-4.33204 h 6.4285 a 56.763294,56.763294 0 0 1 -1.526,-5.31079 h -6.4285 a 56.763294,56.763294 0 0 1 -1.5363,-13.07878 56.763294,56.763294 0 0 1 2.0143,-14.75828 h -6.5479 a 56.763294,56.763294 0 0 1 2.6582,-7.64552 h 6.5479 a 56.763294,56.763294 0 0 1 8.7571,-14.18467 h 9.0791 a 56.763294,56.763294 0 0 1 9.4387,-8.89765 h -9.0791 a 56.763294,56.763294 0 0 1 33.8946,-11.27683 56.763294,56.763294 0 0 1 23.459,5.09013 h 10.5953 a 56.763294,56.763294 0 0 1 10.4779,6.1867 h -10.5953 a 56.763294,56.763294 0 0 1 20.0371,27.912 v -19.01435 h 0.3726 a 65.515602,65.515602 0 0 0 -7.2105,-8.89765 h 10.5953 a 65.515602,65.515602 0 0 0 -6.8761,-6.1867 h -10.5952 a 65.515602,65.515602 0 0 0 -40.2601,-13.84256 z" /></g></svg>
